<?xml version="1.0" encoding="utf-8"?>
<!-- Generator: Adobe Illustrator 17.1.0, SVG Export Plug-In . SVG Version: 6.00 Build 0)  -->
<!DOCTYPE svg PUBLIC "-//W3C//DTD SVG 1.1//EN" "http://www.w3.org/Graphics/SVG/1.1/DTD/svg11.dtd">
<svg version="1.1" id="Layer_1" xmlns="http://www.w3.org/2000/svg" xmlns:xlink="http://www.w3.org/1999/xlink" x="0px" y="0px"
	 viewBox="-0.2 0 61.2 348.7" enable-background="new -0.2 0 61.2 348.7" xml:space="preserve">
<g>
	<g>
		<path fill="#5EC1EC" d="M60.1,166.8c0,2.8-2.2,5-5,5h-50c-2.8,0-5-2.2-5-5v-30c0-2.8,2.2-5,5-5h50c2.8,0,5,2.2,5,5V166.8z"/>
		<path fill="#5BBBE6" d="M58.6,133.3c0.9,0.9,1.5,2.2,1.5,3.5v15v15c0,1.4-0.6,2.6-1.5,3.5c-0.9,0.9-2.2,1.5-3.5,1.5h-25h-25
			c-1.4,0-2.6-0.6-3.5-1.5L58.6,133.3z"/>
		<g>
			<path fill="#FFFFFF" d="M17.7,156.7l-0.5-1.7h-3l-0.5,1.7H11l3-9.3h3.3l3.1,9.3H17.7z M16.7,152.9l-0.4-1.5
				c-0.1-0.3-0.2-0.8-0.3-1.3c-0.1-0.5-0.2-0.9-0.3-1.2c0,0.2-0.1,0.6-0.2,1.1s-0.4,1.5-0.7,2.9L16.7,152.9L16.7,152.9z"/>
			<path fill="#FFFFFF" d="M25.5,156.7l-1.9-6.7h-0.1c0.1,1.1,0.1,2,0.1,2.7v4h-2.2v-9.3h3.3l1.9,6.6h0.1l1.9-6.6H32v9.3h-2.3v-4.1
				c0-0.2,0-0.4,0-0.7s0-0.9,0.1-1.9h-0.1l-1.9,6.7L25.5,156.7L25.5,156.7z"/>
			<path fill="#FFFFFF" d="M39.2,156.7h-5.5v-9.3h5.5v2h-3v1.5H39v2h-2.8v1.8h3V156.7z"/>
			<path fill="#FFFFFF" d="M49.2,156.7h-2.9l-1.8-2.9l-1.8,2.9h-2.8L43,152l-2.9-4.5h2.8l1.7,2.9l1.6-2.9H49l-2.9,4.7L49.2,156.7z"
				/>
		</g>
		<g>
			<path fill="#FFFFFF" d="M17.7,156.7l-0.5-1.7h-3l-0.5,1.7H11l3-9.3h3.3l3.1,9.3H17.7z M16.7,152.9l-0.4-1.5
				c-0.1-0.3-0.2-0.8-0.3-1.3c-0.1-0.5-0.2-0.9-0.3-1.2c0,0.2-0.1,0.6-0.2,1.1s-0.4,1.5-0.7,2.9L16.7,152.9L16.7,152.9z"/>
			<path fill="#FFFFFF" d="M25.5,156.7l-1.9-6.7h-0.1c0.1,1.1,0.1,2,0.1,2.7v4h-2.2v-9.3h3.3l1.9,6.6h0.1l1.9-6.6H32v9.3h-2.3v-4.1
				c0-0.2,0-0.4,0-0.7s0-0.9,0.1-1.9h-0.1l-1.9,6.7L25.5,156.7L25.5,156.7z"/>
			<path fill="#FFFFFF" d="M39.2,156.7h-5.5v-9.3h5.5v2h-3v1.5H39v2h-2.8v1.8h3V156.7z"/>
			<path fill="#FFFFFF" d="M49.2,156.7h-2.9l-1.8-2.9l-1.8,2.9h-2.8L43,152l-2.9-4.5h2.8l1.7,2.9l1.6-2.9H49l-2.9,4.7L49.2,156.7z"
				/>
		</g>
		<path fill="#56B1D9" d="M30.1,131.8"/>
	</g>
	<g>
		<path fill="#9BCEE0" d="M55.1,132.8c2.2,0,4,1.8,4,4v30c0,2.2-1.8,4-4,4h-50c-2.2,0-4-1.8-4-4v-30c0-2.2,1.8-4,4-4H55.1
			 M55.1,131.8h-50c-2.8,0-5,2.2-5,5v30c0,2.8,2.2,5,5,5h50c2.8,0,5-2.2,5-5v-30C60.1,134,57.9,131.8,55.1,131.8L55.1,131.8z"/>
	</g>
</g>
<g>
	<path fill="#5565AF" d="M60.4,123c0,2.8-2.2,5-5,5h-50c-2.8,0-5-2.2-5-5V93c0-2.8,2.2-5,5-5h50c2.8,0,5,2.2,5,5V123z"/>
	<path opacity="4.000000e-02" fill="#FFFFFF" enable-background="new    " d="M58.9,89.5c0.9,0.9,1.5,2.2,1.5,3.5v15v15
		c0,1.4-0.6,2.6-1.5,3.5c-0.9,0.9-2.2,1.5-3.5,1.5h-25h-25c-1.4,0-2.6-0.6-3.5-1.5L58.9,89.5z"/>
	<path fill="#56B1D9" d="M30.4,88"/>
	<g>
		<path fill="#EA564B" d="M30.4,101.4c-1.8-2.1-4.5-3.4-7.5-3.4c-5.5,0-10,4.5-10,10c0,5.5,4.5,10,10,10c3,0,5.7-1.3,7.5-3.4
			c-1.6-1.8-2.5-4.1-2.5-6.6S28.8,103.2,30.4,101.4z"/>
		<path fill="#EA564B" d="M30.4,101.4c-1.6,1.8-2.5,4.1-2.5,6.6s0.9,4.8,2.5,6.6c1.6-1.8,2.5-4.1,2.5-6.6S31.9,103.2,30.4,101.4z"/>
	</g>
	<path fill="#E9D419" d="M37.9,98c-3,0-5.7,1.3-7.5,3.4c-0.4,0.5-0.8,1-1.1,1.6h2.3c0.4,0.6,0.6,1.3,0.9,2h-4
		c-0.2,0.6-0.4,1.3-0.4,2h4.9c0,0.3,0.1,0.7,0.1,1c0,0.3,0,0.7-0.1,1h-4.9c0.1,0.7,0.2,1.4,0.4,2h4.1c-0.2,0.7-0.5,1.4-0.9,2h-2.3
		c0.3,0.6,0.7,1.1,1.1,1.6c1.8,2.1,4.5,3.4,7.5,3.4c5.5,0,10-4.5,10-10C47.9,102.5,43.4,98,37.9,98z"/>
	<g>
		<path fill="#7684B7" d="M55.4,89c2.2,0,4,1.8,4,4v30c0,2.2-1.8,4-4,4h-50c-2.2,0-4-1.8-4-4V93c0-2.2,1.8-4,4-4H55.4 M55.4,88h-50
			c-2.8,0-5,2.2-5,5v30c0,2.8,2.2,5,5,5h50c2.8,0,5-2.2,5-5V93C60.4,90.2,58.1,88,55.4,88L55.4,88z"/>
	</g>
</g>
<g>
	<path fill="#F3F4F4" d="M59.8,255c0,2.8-2.2,5-5,5h-50c-2.8,0-5-2.2-5-5v-30c0-2.8,2.2-5,5-5h50c2.8,0,5,2.2,5,5V255z"/>
	<g>
		<path fill="#FFFFFF" d="M29.8,220"/>
		<g>
			<path fill="#5565AF" d="M16.8,250h-8v-15c0-2.8,3.2-5,6-5h6v15C20.8,247.8,19.6,250,16.8,250z"/>
			<path fill="#EA564B" d="M30.8,250h-8v-15c0-2.8,3.2-5,6-5h6v15C34.8,247.8,33.6,250,30.8,250z"/>
			<path fill="#99CD76" d="M44.8,250h-8v-15c0-2.8,3.2-5,6-5h6v15C48.8,247.8,47.6,250,44.8,250z"/>
		</g>
		<path opacity="8.000000e-02" fill="#FFFFFF" enable-background="new    " d="M58.4,221.5c0.9,0.9,1.5,2.2,1.5,3.5v15v15
			c0,1.4-0.6,2.6-1.5,3.5c-0.9,0.9-2.2,1.5-3.5,1.5h-25h-25c-1.4,0-2.6-0.6-3.5-1.5L58.4,221.5z"/>
		<g>
			<path fill="#F8F8F9" d="M54.8,221c2.2,0,4,1.8,4,4v30c0,2.2-1.8,4-4,4h-50c-2.2,0-4-1.8-4-4v-30c0-2.2,1.8-4,4-4H54.8 M54.8,220
				h-50c-2.8,0-5,2.2-5,5v30c0,2.8,2.2,5,5,5h50c2.8,0,5-2.2,5-5v-30C59.8,222.2,57.6,220,54.8,220L54.8,220z"/>
		</g>
	</g>
</g>
<g>
	<path fill="#F3F4F4" d="M60,299c0,2.8-2.2,5-5,5H5c-2.8,0-5-2.2-5-5v-30c0-2.8,2.2-5,5-5h50c2.8,0,5,2.2,5,5V299z"/>
	<g>
		<g>
			<circle fill="#009FDA" cx="26.8" cy="284" r="10"/>
			<path fill="#009FDA" d="M26,274c5,0,10,4.5,10,10c0,5.5-5,10-10,10V274z"/>
			<path fill="#009FDA" d="M26,294v-20h7.2c5,0,10,4.5,10,10c0,5.5-5,10-10,10H26z"/>
			<circle fill="#F3F4F4" cx="26.8" cy="284" r="9.4"/>
			<g>
				<path fill="#009FDA" d="M31.4,284c0-2.7-2.4-5-4.4-5.6v11.2C29,289,31.4,286.7,31.4,284z"/>
			</g>
			<g>
				<path fill="#009FDA" d="M19.6,284c0,2.7,2.4,5,4.4,5.6v-11.2C22,279,19.6,281.3,19.6,284z"/>
			</g>
		</g>
		<path opacity="8.000000e-02" fill="#FFFFFF" enable-background="new    " d="M58.5,265.5c0.9,0.9,1.5,2.2,1.5,3.5v15v15
			c0,1.4-0.6,2.6-1.5,3.5S56.4,304,55,304H30H5c-1.4,0-2.6-0.6-3.5-1.5L58.5,265.5z"/>
		<g>
			<path fill="#F8F8F9" d="M55,265c2.2,0,4,1.8,4,4v30c0,2.2-1.8,4-4,4H5c-2.2,0-4-1.8-4-4v-30c0-2.2,1.8-4,4-4H55 M55,264H5
				c-2.8,0-5,2.2-5,5v30c0,2.8,2.2,5,5,5h50c2.8,0,5-2.2,5-5v-30C60,266.2,57.8,264,55,264L55,264z"/>
		</g>
	</g>
</g>
<g>
	<path fill="#FFF9F0" d="M60.1,210.7c0,2.8-2.2,5-5,5h-50c-2.8,0-5-2.2-5-5v-30c0-2.8,2.2-5,5-5h50c2.8,0,5,2.2,5,5V210.7z"/>
	<g>
		<path fill="#414042" d="M15.2,195.7c0,1-0.3,1.8-0.9,2.3c-0.6,0.5-1.4,0.8-2.5,0.8h-1.7v-6.1h1.9c1,0,1.8,0.3,2.3,0.8
			C15,194,15.2,194.7,15.2,195.7z M13.9,195.7c0-1.3-0.6-2-1.7-2h-0.7v4H12C13.3,197.7,13.9,197,13.9,195.7z"/>
		<path fill="#414042" d="M16.3,198.8v-6.1h1.3v6.1H16.3z"/>
		<path fill="#414042" d="M22.8,197.1c0,0.6-0.2,1-0.6,1.3c-0.4,0.3-0.9,0.5-1.6,0.5c-0.6,0-1.2-0.1-1.7-0.4v-1.2
			c0.4,0.2,0.8,0.3,1,0.4c0.3,0.1,0.5,0.1,0.8,0.1c0.3,0,0.5-0.1,0.7-0.2c0.1-0.1,0.2-0.3,0.2-0.5c0-0.1,0-0.2-0.1-0.3
			c-0.1-0.1-0.2-0.2-0.3-0.3c-0.1-0.1-0.4-0.2-0.8-0.4c-0.4-0.2-0.6-0.3-0.8-0.5c-0.2-0.2-0.3-0.3-0.4-0.6s-0.2-0.5-0.2-0.8
			c0-0.5,0.2-1,0.5-1.3c0.4-0.3,0.9-0.5,1.5-0.5c0.3,0,0.6,0,0.9,0.1c0.3,0.1,0.6,0.2,0.9,0.3l-0.4,1c-0.3-0.1-0.6-0.2-0.8-0.3
			c-0.2-0.1-0.4-0.1-0.6-0.1c-0.2,0-0.4,0.1-0.6,0.2c-0.1,0.1-0.2,0.3-0.2,0.4c0,0.1,0,0.2,0.1,0.3c0.1,0.1,0.1,0.2,0.3,0.2
			s0.4,0.2,0.8,0.4c0.6,0.3,1,0.5,1.2,0.8C22.6,196.3,22.8,196.7,22.8,197.1z"/>
		<path fill="#414042" d="M26.4,193.7c-0.5,0-0.9,0.2-1.1,0.5c-0.3,0.4-0.4,0.9-0.4,1.5c0,1.4,0.5,2,1.5,2c0.4,0,0.9-0.1,1.6-0.3
			v1.1c-0.5,0.2-1.1,0.3-1.7,0.3c-0.9,0-1.6-0.3-2-0.8c-0.5-0.5-0.7-1.3-0.7-2.3c0-0.6,0.1-1.2,0.3-1.7c0.2-0.5,0.6-0.8,1-1.1
			c0.4-0.3,0.9-0.4,1.5-0.4c0.6,0,1.2,0.1,1.8,0.4l-0.4,1c-0.2-0.1-0.5-0.2-0.7-0.3C26.9,193.7,26.7,193.7,26.4,193.7z"/>
		<path fill="#414042" d="M38.3,192.7h1.3l-2.1,6.1h-1.4l-2.1-6.1h1.3l1.1,3.6c0.1,0.2,0.1,0.5,0.2,0.7c0.1,0.3,0.1,0.5,0.1,0.6
			c0-0.3,0.1-0.7,0.3-1.3L38.3,192.7z"/>
		<path fill="#414042" d="M43.9,198.8h-3.5v-6.1h3.5v1.1h-2.2v1.3h2.1v1.1h-2.1v1.6h2.2V198.8z"/>
		<path fill="#414042" d="M46.5,196.4v2.3h-1.3v-6.1h1.8c0.8,0,1.4,0.1,1.8,0.5c0.4,0.3,0.6,0.8,0.6,1.4c0,0.4-0.1,0.7-0.3,1
			c-0.2,0.3-0.5,0.5-0.8,0.7c0.9,1.4,1.5,2.3,1.8,2.6h-1.4l-1.5-2.3L46.5,196.4L46.5,196.4z M46.5,195.4h0.4c0.4,0,0.7-0.1,0.9-0.2
			c0.2-0.1,0.3-0.4,0.3-0.6c0-0.3-0.1-0.5-0.3-0.6s-0.5-0.2-0.9-0.2h-0.4L46.5,195.4L46.5,195.4z"/>
		<circle fill="#E6A124" cx="31.2" cy="195.7" r="3"/>
	</g>
	<path fill="#E6A124" d="M60.1,203.2v7.5c0,0.7-0.1,1.3-0.4,1.9c-0.3,0.6-0.6,1.1-1.1,1.6s-1,0.8-1.6,1.1c-0.6,0.3-1.3,0.4-1.9,0.4
		H32.7H10.2L60.1,203.2z"/>
	<path opacity="8.000000e-02" fill="#FFFFFF" enable-background="new    " d="M58.6,177.2c0.9,0.9,1.5,2.2,1.5,3.5v15v15
		c0,1.4-0.6,2.6-1.5,3.5c-0.9,0.9-2.2,1.5-3.5,1.5h-25h-25c-1.4,0-2.6-0.6-3.5-1.5L58.6,177.2z"/>
	<g>
		<path fill="#F7F5F2" d="M55.1,176.7c2.2,0,4,1.8,4,4v30c0,2.2-1.8,4-4,4h-50c-2.2,0-4-1.8-4-4v-30c0-2.2,1.8-4,4-4H55.1
			 M55.1,175.7h-50c-2.8,0-5,2.2-5,5v30c0,2.8,2.2,5,5,5h50c2.8,0,5-2.2,5-5v-30C60.1,178,57.9,175.7,55.1,175.7L55.1,175.7z"/>
	</g>
</g>
<g>
	<path fill="#F3F4F4" d="M60.4,78.8c0,2.8-2.2,5-5,5h-50c-2.8,0-5-2.2-5-5v-30c0-2.8,2.2-5,5-5h50c2.8,0,5,2.2,5,5V78.8z"/>
	<path fill="#5565AF" d="M1.4,53.8v-5c0-2.8,2.2-5,5-5h48c2.8,0,5,2.2,5,5v5"/>
	<path fill="#E6A124" d="M59.4,73.8v5c0,2.8-2.2,4-5,4h-48c-2.8,0-5-1.2-5-4v-5"/>
	<g>
		<path fill="#5565AF" d="M17.8,67.2c0.4-1.1,0.7-1.9,0.9-2.2l3.4-6.9h2.5l-5.8,11.4H16l-1-11.4h2.3l0.4,6.9c0,0.2,0,0.6,0,1
			C17.7,66.5,17.7,66.9,17.8,67.2L17.8,67.2z"/>
		<path fill="#5565AF" d="M23.4,69.5l2.4-11.4h2.4l-2.4,11.4H23.4z"/>
		<path fill="#5565AF" d="M35.6,66.1c0,1.1-0.4,1.9-1.2,2.6c-0.8,0.6-1.8,0.9-3.1,0.9c-1.2,0-2.1-0.2-2.8-0.7v-2.1
			c1,0.6,1.9,0.8,2.8,0.8c0.6,0,1-0.1,1.4-0.3c0.3-0.2,0.5-0.5,0.5-0.9c0-0.2,0-0.4-0.1-0.6c-0.1-0.2-0.2-0.3-0.3-0.5
			c-0.1-0.1-0.5-0.4-1-0.8c-0.7-0.5-1.2-1-1.5-1.5c-0.3-0.5-0.4-1-0.4-1.6c0-0.7,0.2-1.3,0.5-1.8c0.3-0.5,0.8-0.9,1.4-1.2
			c0.6-0.3,1.3-0.4,2.1-0.4c1.1,0,2.2,0.3,3.1,0.8L36,60.5c-0.8-0.4-1.6-0.6-2.2-0.6c-0.4,0-0.8,0.1-1.1,0.4
			c-0.3,0.2-0.4,0.5-0.4,0.9c0,0.3,0.1,0.6,0.3,0.8c0.2,0.2,0.6,0.6,1.2,0.9c0.6,0.4,1.1,0.9,1.4,1.4C35.4,64.9,35.6,65.5,35.6,66.1
			z"/>
		<path fill="#5565AF" d="M43.2,66.8h-3.7l-1.3,2.7h-2.5l6-11.5h2.9l1.1,11.5h-2.3L43.2,66.8z M43.1,64.8L42.9,62
			c-0.1-0.7-0.1-1.3-0.1-2v-0.3c-0.2,0.6-0.5,1.3-0.9,2l-1.5,3H43.1z"/>
	</g>
	<path fill="#FFFFFF" d="M30.4,43.8"/>
	<path opacity="4.000000e-02" fill="#FFFFFF" enable-background="new    " d="M58.9,45.3c0.9,0.9,1.5,2.2,1.5,3.5v15v15
		c0,1.4-0.6,2.6-1.5,3.5s-2.2,1.5-3.5,1.5h-25h-25c-1.4,0-2.6-0.6-3.5-1.5L58.9,45.3z"/>
	<g>
		<path fill="#F8F8F9" d="M55.4,44.8c2.2,0,4,1.8,4,4v30c0,2.2-1.8,4-4,4h-50c-2.2,0-4-1.8-4-4v-30c0-2.2,1.8-4,4-4H55.4 M55.4,43.8
			h-50c-2.8,0-5,2.2-5,5v30c0,2.8,2.2,5,5,5h50c2.8,0,5-2.2,5-5v-30C60.4,46,58.1,43.8,55.4,43.8L55.4,43.8z"/>
	</g>
</g>
<g>
	<g>
		<path fill="#CDCDCD" d="M60,343.7c0,2.8-2.2,5-5,5H5c-2.8,0-5-2.2-5-5v-30c0-2.8,2.2-5,5-5h50c2.8,0,5,2.2,5,5V343.7z"/>
	</g>
	<rect x="1.8" y="315" fill="#424143" width="58.2" height="8"/>
	<rect x="7.8" y="327" fill="#FFFFFF" width="36" height="8"/>
	<rect x="10.8" y="330" fill="#424143" width="29" height="2"/>
	<g>
		<g>
			<path fill="#DFDEDD" d="M55,309.7c2.2,0,4,1.8,4,4v30c0,2.2-1.8,4-4,4H5c-2.2,0-4-1.8-4-4v-30c0-2.2,1.8-4,4-4H55 M55,308.7H5
				c-2.8,0-5,2.2-5,5v30c0,2.8,2.2,5,5,5h50c2.8,0,5-2.2,5-5v-30C60,311,57.8,308.7,55,308.7L55,308.7z"/>
		</g>
	</g>
	<rect x="46.8" y="327" fill="#FFFFFF" width="8" height="8"/>
	<rect x="47.8" y="330" fill="#424143" width="6" height="2"/>
	<circle fill="none" stroke="#E9564B" stroke-width="2" stroke-miterlimit="10" cx="50.2" cy="330.9" r="7.8"/>
</g>
<g>
	<g>
		<path fill="#C4DAB0" d="M61,35c0,2.8-2.2,5-5,5H6c-2.8,0-5-2.2-5-5V5c0-2.8,2.2-5,5-5h50c2.8,0,5,2.2,5,5V35z"/>
	</g>
	<rect x="2" y="6.3" fill="#424143" width="59" height="8"/>
	<g>
		<g>
			<path fill="#7D9769" d="M56,1c2.2,0,4,1.8,4,4v30c0,2.2-1.8,4-4,4H6c-2.2,0-4-1.8-4-4V5c0-2.2,1.8-4,4-4H56 M56,0H6
				C3.2,0,1,2.2,1,5v30c0,2.8,2.2,5,5,5h50c2.8,0,5-2.2,5-5V5C61,2.2,58.7,0,56,0L56,0z"/>
		</g>
	</g>
</g>
</svg>
